<svg width="99" height="99" viewBox="0 0 99 99" fill="none" xmlns="http://www.w3.org/2000/svg">
<rect width="99" height="99" rx="24" fill="#111111"/>
<g clip-path="url(#clip0_1296_13050)">
<path d="M73.9668 52.6111C74.2691 51.2852 72.4004 49.9454 72.5928 48.9823C72.4999 45.8523 71.7107 42.7842 70.2843 40.0081C69.0271 37.6075 67.5362 35.0534 64.4239 33.7274C64.2405 33.644 64.087 33.5051 63.9842 33.3297C63.9574 33.3009 63.9321 33.2706 63.9087 33.239C63.9499 33.1762 63.998 33.1273 64.0392 33.0715C66.7118 30.7058 67.3782 27.4259 67.9759 24.1321C68.0911 23.2401 68.0445 22.3343 67.8385 21.4593C67.7767 21.1244 67.2614 20.7615 66.8835 20.6429C66.6911 20.5731 66.1965 20.8801 66.0934 21.1313C65.4957 22.5689 64.0323 23.0714 63.0842 24.1391C61.3872 26.0791 59.0307 26.5955 56.7429 27.2584C54.455 26.9514 53.1085 28.0191 52.2771 29.8614C51.3618 29.8085 50.4443 29.8085 49.529 29.8614H49.3435C49.0069 29.4287 48.6565 29.003 48.3061 28.5913C48.1363 28.3829 47.9061 28.2342 47.6483 28.1665C47.3904 28.0989 47.1181 28.1157 46.8702 28.2145C45.629 28.5641 44.3241 28.6105 43.0619 28.3497C41.7998 28.0889 40.6163 27.5285 39.6082 26.7141C37.657 25.3184 35.9669 23.525 35.1906 21.0895C35.0675 20.7534 34.9158 20.4288 34.7372 20.1195C34.7113 20.0868 34.679 20.06 34.6423 20.0407C34.6056 20.0215 34.5654 20.0103 34.5242 20.0078C34.4373 19.9892 34.3466 20.0041 34.27 20.0497C33.4112 20.7475 32.7104 23.825 33.0814 24.802C33.7684 26.6234 34.1669 28.5634 35.0738 30.2941C35.5806 31.2397 36.1839 32.1285 36.8738 32.9459C36.9082 32.9947 36.9563 33.0296 36.9906 33.0784C35.5294 33.2107 34.1433 33.7953 33.0196 34.7533C31.6455 36.149 31.6455 39.373 30.0722 40.6291C26.0256 43.8811 26.424 46.6655 25.0843 50.9712C24.7339 52.0877 25.6065 54.7116 25.3316 55.8561C24.7408 58.2846 26.266 60.741 26.3897 63.1486C26.3989 64.0358 26.6853 64.8971 27.2076 65.6083C27.7299 66.3194 28.4612 66.8437 29.2959 67.1054C29.6875 67.2589 30.031 67.4892 30.4363 67.6148C31.2539 67.866 31.5081 67.7893 31.8791 68.3126C32.0371 68.5429 32.0783 68.836 31.6455 68.9198C31.2127 69.0035 30.7661 68.9895 30.3333 69.0593C30.21 69.0736 30.0855 69.0736 29.9623 69.0593C30.1153 69.1432 30.2344 69.2791 30.2989 69.4431C31.1783 71.3552 32.9784 72.723 34.6685 74.1117C35.5053 74.9234 36.4571 75.6032 37.4922 76.1285C38.7711 76.6916 40.0892 77.1581 41.4357 77.5242C42.7858 77.9137 44.1642 78.1937 45.5579 78.3616C46.646 78.3722 47.7336 78.3139 48.8145 78.1871C50.0374 78.1453 51.8787 79.3735 53.0054 78.885C54.6612 78.1871 56.3925 78.3197 58.0414 77.5661C59.6903 76.8124 61.3391 76.1704 62.4865 74.8514C62.7888 74.5095 62.4865 74.1536 63.1735 74.342C63.3252 74.3557 63.478 74.336 63.6214 74.2842C63.7649 74.2324 63.8957 74.1498 64.0048 74.0419C65.2346 72.1019 67.4057 70.8528 69.1713 69.3106C71.0401 67.6776 71.8645 64.9351 72.7714 62.9183C72.9638 62.4856 73.4584 61.9902 72.847 61.7878C72.0363 61.5017 71.4729 60.2525 71.4729 60.2525C72.4004 59.3523 71.2462 58.466 72.1599 57.5798C73.2386 56.6098 73.6989 53.8254 73.9668 52.6111ZM29.9966 66.2749V65.926C30.0997 66.0307 30.2096 66.0935 30.2027 66.1493C30.1959 66.2052 30.0516 66.2261 29.976 66.2749H29.9966ZM30.3951 59.0802C30.4707 59.0313 30.5462 58.9406 30.6218 58.9406C30.6974 58.9406 30.7592 59.0383 30.8279 59.0941C31.206 59.1723 31.5897 59.219 31.9753 59.2337C31.4394 59.2113 30.9051 59.16 30.3745 59.0802H30.3951ZM59.6009 29.1775C59.649 29.1775 59.7109 29.2822 59.7658 29.338L59.3399 29.4985L59.1819 29.3101C59.3114 29.2564 59.4446 29.2121 59.5803 29.1775H59.6009ZM52.9092 32.2201C52.9302 32.2535 52.9486 32.2885 52.9642 32.3248V32.3667H52.8817L52.7856 32.3248C52.7856 32.3248 52.7856 32.3248 52.7856 32.269C52.7856 32.2131 52.7856 32.2341 52.7856 32.2061L52.9092 32.2201ZM46.8565 29.5125C46.8565 29.5125 46.9389 29.5125 46.987 29.4566L47.0488 29.6799L46.8084 29.7358C46.8078 29.6604 46.8171 29.5854 46.8358 29.5125H46.8565ZM45.4824 76.8403C45.4206 76.8403 45.345 76.7496 45.2763 76.6938C45.4458 76.6466 45.6178 76.6093 45.7915 76.5821C45.8602 76.5821 45.9358 76.6728 46.0045 76.7217C45.8262 76.7727 45.645 76.8124 45.4618 76.8403H45.4824ZM45.8809 69.0314C45.6318 69.1756 45.3695 69.2948 45.0976 69.3873C44.8641 69.2408 44.6236 69.164 44.5686 69.0314C44.5585 68.9497 44.5727 68.8668 44.6095 68.7934C44.6462 68.72 44.7038 68.6595 44.7747 68.6197C45.0921 68.5432 45.4173 68.5057 45.7435 68.508C45.8396 68.508 46.0251 68.5848 46.0183 68.6197C45.9908 68.7662 45.977 68.9616 45.8602 69.0314H45.8809ZM61.0712 62.6671C60.1454 64.0206 58.9069 65.1228 57.4643 65.8772C47.3374 71.5785 57.3406 68.2289 44.6305 68.2708C43.0091 68.2708 41.6006 68.4801 40.5907 67.3496C39.1754 65.7655 36.1799 63.9023 35.7815 62.0669C35.6784 61.5854 35.0944 61.083 35.0944 60.734C34.9158 58.6754 34.4074 56.9168 34.9227 55.1024C35.7059 52.3111 35.4791 48.6683 37.3754 46.3026C38.296 45.1512 39.8556 43.5461 39.1273 42.3598C38.7014 41.6619 38.8937 41.4526 39.6563 41.3409C40.8518 41.1735 41.9029 40.4198 43.0915 41.0478C43.9386 41.5475 44.9167 41.7701 45.8928 41.6851C46.8688 41.6002 47.7954 41.212 48.5466 40.5733C48.8076 40.3709 49.0206 40.1267 49.2886 39.9243C49.6085 39.6848 49.9601 39.4921 50.3328 39.3521C51.583 39.4538 52.8407 39.3976 54.0772 39.1846C54.249 39.1846 54.4138 39.1148 54.5787 39.0799C55.418 39.2151 56.2388 39.4493 57.0246 39.7778C57.5163 40.0225 57.9535 40.3668 58.3093 40.7896C58.675 41.158 58.9605 41.6002 59.1475 42.0876C59.714 43.988 60.847 45.6631 62.3903 46.8818C62.7819 47.1889 62.6926 47.6285 62.2185 47.8867C61.0162 48.5357 63.8949 49.1428 62.6995 49.8058C61.2773 50.5874 62.6995 52.3808 63.1529 53.2252C64.898 56.3795 62.83 59.9106 61.0506 62.6671H61.0712Z" fill="#F4F4F4"/>
</g>
<defs>
<clipPath id="clip0_1296_13050">
<rect width="49" height="59" fill="white" transform="translate(25 20)"/>
</clipPath>
</defs>
</svg>
