<svg width="60" height="60" viewBox="0 0 40 40" fill="none" xmlns="http://www.w3.org/2000/svg">
<path d="M24.2426 24.2426C21.8995 26.5858 18.1005 26.5858 15.7574 24.2426M24.2426 24.2426C26.5858 21.8995 26.5858 18.1005 24.2426 15.7574M24.2426 24.2426L30.6066 30.6066M15.7574 24.2426C13.4142 21.8995 13.4142 18.1005 15.7574 15.7574M15.7574 24.2426L9.3934 30.6066M15.7574 15.7574C18.1005 13.4142 21.8995 13.4142 24.2426 15.7574M15.7574 15.7574L9.3934 9.3934M24.2426 15.7574L30.6066 9.3934M31.3137 31.3137C25.0653 37.5621 14.9347 37.5621 8.68629 31.3137C2.4379 25.0653 2.4379 14.9347 8.68629 8.6863C14.9347 2.43791 25.0653 2.43791 31.3137 8.6863C37.5621 14.9347 37.5621 25.0653 31.3137 31.3137Z" stroke="currentColor" stroke-linecap="round" stroke-linejoin="round"/>
</svg>
