<svg viewBox="0 0 49 59" fill="none" xmlns="http://www.w3.org/2000/svg">
<path d="M48.9668 32.6111C49.2691 31.2852 47.4004 29.9454 47.5928 28.9823C47.4999 25.8523 46.7107 22.7842 45.2843 20.0081C44.0271 17.6075 42.5362 15.0534 39.4239 13.7274C39.2405 13.644 39.087 13.5051 38.9842 13.3297C38.9574 13.3009 38.9321 13.2706 38.9087 13.239C38.9499 13.1762 38.998 13.1273 39.0392 13.0715C41.7118 10.7058 42.3782 7.42591 42.9759 4.13208C43.0911 3.24012 43.0445 2.33427 42.8385 1.45934C42.7767 1.12437 42.2614 0.761494 41.8835 0.64286C41.6911 0.573076 41.1965 0.880126 41.0934 1.13135C40.4957 2.56891 39.0323 3.07136 38.0842 4.13906C36.3872 6.07907 34.0307 6.59547 31.7429 7.25843C29.455 6.95137 28.1085 8.01908 27.2771 9.86139C26.3618 9.80847 25.4443 9.80847 24.529 9.86139H24.3435C24.0069 9.42873 23.6565 9.00304 23.3061 8.59131C23.1363 8.38287 22.9061 8.23421 22.6483 8.16654C22.3904 8.09887 22.1181 8.11565 21.8702 8.21448C20.629 8.56413 19.3241 8.61046 18.0619 8.34969C16.7998 8.08892 15.6163 7.52846 14.6082 6.71411C12.657 5.31842 10.9669 3.52496 10.1906 1.08948C10.0675 0.753373 9.91577 0.42881 9.73715 0.119477C9.7113 0.086784 9.679 0.0599538 9.64232 0.0407223C9.60564 0.0214908 9.56538 0.0102825 9.52417 0.00781915C9.43726 -0.0108081 9.34664 0.00411773 9.26997 0.0496881C8.41118 0.747533 7.7104 3.82504 8.0814 4.80202C8.76843 6.62339 9.16693 8.5634 10.0738 10.2941C10.5806 11.2397 11.1839 12.1285 11.8738 12.9459C11.9082 12.9947 11.9563 13.0296 11.9906 13.0784C10.5294 13.2107 9.14326 13.7953 8.01957 14.7533C6.6455 16.149 6.64551 19.373 5.0722 20.6291C1.02557 23.8811 1.42404 26.6655 0.0843251 30.9712C-0.266063 32.0877 0.606461 34.7116 0.331647 35.8561C-0.259202 38.2846 1.26602 40.741 1.38969 43.1486C1.39887 44.0358 1.68529 44.8971 2.20762 45.6083C2.72995 46.3194 3.46119 46.8437 4.29585 47.1054C4.68746 47.2589 5.03098 47.4892 5.43633 47.6148C6.2539 47.866 6.50809 47.7893 6.87909 48.3126C7.0371 48.5429 7.07833 48.836 6.6455 48.9198C6.21267 49.0035 5.76609 48.9895 5.33326 49.0593C5.20999 49.0736 5.08554 49.0736 4.96228 49.0593C5.1153 49.1432 5.23445 49.2791 5.29892 49.4431C6.17832 51.3552 7.97836 52.723 9.66847 54.1117C10.5053 54.9234 11.4571 55.6032 12.4922 56.1285C13.7711 56.6916 15.0892 57.1581 16.4357 57.5242C17.7858 57.9137 19.1642 58.1937 20.5579 58.3616C21.646 58.3722 22.7336 58.3139 23.8145 58.1871C25.0374 58.1453 26.8787 59.3735 28.0054 58.885C29.6612 58.1871 31.3925 58.3197 33.0414 57.5661C34.6903 56.8124 36.3391 56.1704 37.4865 54.8514C37.7888 54.5095 37.4865 54.1536 38.1735 54.342C38.3252 54.3557 38.478 54.336 38.6214 54.2842C38.7649 54.2324 38.8957 54.1498 39.0048 54.0419C40.2346 52.1019 42.4057 50.8528 44.1713 49.3106C46.0401 47.6776 46.8645 44.9351 47.7714 42.9183C47.9638 42.4856 48.4584 41.9902 47.847 41.7878C47.0363 41.5017 46.4729 40.2525 46.4729 40.2525C47.4004 39.3523 46.2462 38.466 47.1599 37.5798C48.2386 36.6098 48.6989 33.8254 48.9668 32.6111ZM4.99662 46.2749V45.926C5.09967 46.0307 5.20961 46.0935 5.20274 46.1493C5.19587 46.2052 5.05158 46.2261 4.97601 46.2749H4.99662ZM5.39511 39.0802C5.47068 39.0313 5.54625 38.9406 5.62182 38.9406C5.6974 38.9406 5.75922 39.0383 5.82792 39.0941C6.20599 39.1723 6.58973 39.219 6.97528 39.2337C6.43939 39.2113 5.90505 39.16 5.3745 39.0802H5.39511ZM34.6009 9.1775C34.649 9.1775 34.7109 9.28218 34.7658 9.33801L34.3399 9.49851L34.1819 9.31009C34.3114 9.25639 34.4446 9.21208 34.5803 9.1775H34.6009ZM27.9092 12.2201C27.9302 12.2535 27.9486 12.2885 27.9642 12.3248V12.3667H27.8817L27.7856 12.3248C27.7856 12.3248 27.7856 12.3248 27.7856 12.269C27.7856 12.2131 27.7856 12.2341 27.7856 12.2061L27.9092 12.2201ZM21.8565 9.51247C21.8565 9.51247 21.9389 9.51247 21.987 9.45664L22.0488 9.67995L21.8084 9.73578C21.8078 9.66044 21.8171 9.58536 21.8358 9.51247H21.8565ZM20.4824 56.8403C20.4206 56.8403 20.345 56.7496 20.2763 56.6938C20.4458 56.6466 20.6178 56.6093 20.7915 56.5821C20.8602 56.5821 20.9358 56.6728 21.0045 56.7217C20.8262 56.7727 20.645 56.8124 20.4618 56.8403H20.4824ZM20.8809 49.0314C20.6318 49.1756 20.3695 49.2948 20.0976 49.3873C19.8641 49.2408 19.6236 49.164 19.5686 49.0314C19.5585 48.9497 19.5727 48.8668 19.6095 48.7934C19.6462 48.72 19.7038 48.6595 19.7747 48.6197C20.0921 48.5432 20.4173 48.5057 20.7435 48.508C20.8396 48.508 21.0251 48.5848 21.0183 48.6197C20.9908 48.7662 20.977 48.9616 20.8602 49.0314H20.8809ZM36.0712 42.6671C35.1454 44.0206 33.9069 45.1228 32.4643 45.8772C22.3374 51.5785 32.3406 48.2289 19.6305 48.2708C18.0091 48.2708 16.6006 48.4801 15.5907 47.3496C14.1754 45.7655 11.1799 43.9023 10.7815 42.0669C10.6784 41.5854 10.0944 41.083 10.0944 40.734C9.9158 38.6754 9.40739 36.9168 9.92267 35.1024C10.7059 32.3111 10.4791 28.6683 12.3754 26.3026C13.296 25.1512 14.8556 23.5461 14.1273 22.3598C13.7014 21.6619 13.8937 21.4526 14.6563 21.3409C15.8518 21.1735 16.9029 20.4198 18.0915 21.0478C18.9386 21.5475 19.9167 21.7701 20.8928 21.6851C21.8688 21.6002 22.7954 21.212 23.5466 20.5733C23.8076 20.3709 24.0206 20.1267 24.2886 19.9243C24.6085 19.6848 24.9601 19.4921 25.3328 19.3521C26.583 19.4538 27.8407 19.3976 29.0772 19.1846C29.249 19.1846 29.4138 19.1148 29.5787 19.0799C30.418 19.2151 31.2388 19.4493 32.0246 19.7778C32.5163 20.0225 32.9535 20.3668 33.3093 20.7896C33.675 21.158 33.9605 21.6002 34.1475 22.0876C34.714 23.988 35.847 25.6631 37.3903 26.8818C37.7819 27.1889 37.6926 27.6285 37.2185 27.8867C36.0162 28.5357 38.8949 29.1428 37.6995 29.8058C36.2773 30.5874 37.6995 32.3808 38.1529 33.2252C39.898 36.3795 37.83 39.9106 36.0506 42.6671H36.0712Z" fill="#F4F4F4"/>
</svg>
