<svg width="13" height="12" viewBox="0 0 13 12" fill="none" xmlns="http://www.w3.org/2000/svg">
<path fill-rule="evenodd" clip-rule="evenodd" d="M2.42052 0.00182344H10.67C10.9764 -0.00284137 11.28 0.0616461 11.558 0.190463C11.847 0.330613 12.0896 0.550703 12.2568 0.824502C12.2585 0.840174 12.2585 0.85599 12.2568 0.871662C12.418 1.15034 12.5014 1.46696 12.4985 1.78866C12.5114 2.11866 12.4409 2.4466 12.2936 2.74234L7.06543 11.6818C7.00906 11.7786 6.92819 11.8589 6.8309 11.9148C6.73362 11.9706 6.62334 12 6.51109 12C6.39884 12 6.28856 11.9706 6.19127 11.9148C6.09399 11.8589 6.01312 11.7786 5.95675 11.6818L0.838944 2.77378C0.659025 2.5132 0.545412 2.21286 0.507915 1.8987C0.473388 1.53953 0.55239 1.17858 0.733855 0.866422C0.913479 0.561189 1.18068 0.316622 1.501 0.164263C1.7921 0.044372 2.10584 -0.0110512 2.42052 0.00182344ZM5.87268 1.28038H2.42052C2.29461 1.26935 2.16776 1.28361 2.04746 1.3223C1.96108 1.35976 1.88919 1.4241 1.84254 1.5057C1.79716 1.58916 1.77536 1.68333 1.77948 1.77818C1.81043 1.89724 1.86394 2.00929 1.93712 2.1083L5.87268 8.96221V1.28038ZM7.15475 1.28038V8.99365L11.1691 2.11354C11.2216 2.0133 11.2487 1.90175 11.2479 1.78866C11.2485 1.69355 11.225 1.59984 11.1796 1.51618C11.1518 1.47022 11.1183 1.42796 11.0798 1.39042C11.0632 1.37168 11.0437 1.35575 11.022 1.34326C10.9106 1.29704 10.7905 1.27559 10.67 1.28038H7.15475Z" fill="currentColor"/>
</svg>
