<svg viewBox="0 0 43 42" fill="none" xmlns="http://www.w3.org/2000/svg">
<g>
<path d="M21.3494 3.78164C26.9603 3.78164 27.6248 3.80625 29.8314 3.90469C31.8822 3.99492 32.9896 4.33945 33.7279 4.62656C34.7041 5.00391 35.4095 5.46328 36.1396 6.19336C36.8779 6.93164 37.3291 7.62891 37.7064 8.60508C37.9935 9.34336 38.338 10.459 38.4283 12.5016C38.5267 14.7164 38.5513 15.3809 38.5513 20.9836C38.5513 26.5945 38.5267 27.259 38.4283 29.4656C38.338 31.5164 37.9935 32.6238 37.7064 33.3621C37.3291 34.3383 36.8697 35.0438 36.1396 35.7738C35.4013 36.5121 34.7041 36.9633 33.7279 37.3406C32.9896 37.6277 31.874 37.9723 29.8314 38.0625C27.6166 38.1609 26.9521 38.1855 21.3494 38.1855C15.7384 38.1855 15.074 38.1609 12.8673 38.0625C10.8166 37.9723 9.70913 37.6277 8.97085 37.3406C7.99468 36.9633 7.28921 36.5039 6.55913 35.7738C5.82085 35.0355 5.36968 34.3383 4.99233 33.3621C4.70522 32.6238 4.36069 31.5082 4.27046 29.4656C4.17202 27.2508 4.14741 26.5863 4.14741 20.9836C4.14741 15.3727 4.17202 14.7082 4.27046 12.5016C4.36069 10.4508 4.70522 9.34336 4.99233 8.60508C5.36968 7.62891 5.82905 6.92344 6.55913 6.19336C7.29741 5.45508 7.99468 5.00391 8.97085 4.62656C9.70913 4.33945 10.8248 3.99492 12.8673 3.90469C15.074 3.80625 15.7384 3.78164 21.3494 3.78164ZM21.3494 0C15.6482 0 14.9345 0.0246094 12.6951 0.123047C10.4638 0.221484 8.92984 0.582422 7.60093 1.09922C6.2146 1.64062 5.04155 2.3543 3.87671 3.52734C2.70366 4.69219 1.98999 5.86524 1.44858 7.24336C0.931787 8.58047 0.57085 10.1062 0.472412 12.3375C0.373975 14.5852 0.349365 15.2988 0.349365 21C0.349365 26.7012 0.373975 27.4148 0.472412 29.6543C0.57085 31.8855 0.931787 33.4195 1.44858 34.7484C1.98999 36.1348 2.70366 37.3078 3.87671 38.4727C5.04155 39.6375 6.2146 40.3594 7.59273 40.8926C8.92984 41.4094 10.4556 41.7703 12.6869 41.8687C14.9263 41.9672 15.64 41.9918 21.3412 41.9918C27.0423 41.9918 27.756 41.9672 29.9955 41.8687C32.2267 41.7703 33.7607 41.4094 35.0896 40.8926C36.4677 40.3594 37.6408 39.6375 38.8056 38.4727C39.9705 37.3078 40.6923 36.1348 41.2255 34.7566C41.7423 33.4195 42.1033 31.8938 42.2017 29.6625C42.3002 27.423 42.3248 26.7094 42.3248 21.0082C42.3248 15.307 42.3002 14.5934 42.2017 12.3539C42.1033 10.1227 41.7423 8.58867 41.2255 7.25977C40.7087 5.86523 39.9951 4.69219 38.822 3.52734C37.6572 2.3625 36.4841 1.64062 35.106 1.10742C33.7689 0.590625 32.2431 0.229688 30.0119 0.13125C27.7642 0.0246094 27.0505 0 21.3494 0Z" fill="currentColor"/>
<path d="M21.3494 10.2129C15.3939 10.2129 10.5623 15.0445 10.5623 21C10.5623 26.9555 15.3939 31.7871 21.3494 31.7871C27.3048 31.7871 32.1365 26.9555 32.1365 21C32.1365 15.0445 27.3048 10.2129 21.3494 10.2129ZM21.3494 27.9973C17.4857 27.9973 14.3521 24.8637 14.3521 21C14.3521 17.1363 17.4857 14.0027 21.3494 14.0027C25.213 14.0027 28.3466 17.1363 28.3466 21C28.3466 24.8637 25.213 27.9973 21.3494 27.9973Z" fill="currentColor"/>
<path d="M35.0814 9.78631C35.0814 11.1808 33.9494 12.3047 32.563 12.3047C31.1685 12.3047 30.0447 11.1726 30.0447 9.78631C30.0447 8.39177 31.1767 7.26794 32.563 7.26794C33.9494 7.26794 35.0814 8.39998 35.0814 9.78631Z" fill="currentColor"/>
</g>
<defs>
</defs>
</svg>
