<svg viewBox="0 0 43 42" fill="none" xmlns="http://www.w3.org/2000/svg">
<path fill-rule="evenodd" clip-rule="evenodd" d="M42.0494 21C42.0494 32.598 32.6474 42 21.0494 42C9.45146 42 0.0494385 32.598 0.0494385 21C0.0494385 9.40202 9.45146 0 21.0494 0C32.6474 0 42.0494 9.40202 42.0494 21ZM21.802 15.5031C19.7594 16.3527 15.6772 18.1111 9.55523 20.7783C8.56112 21.1736 8.04037 21.5604 7.99297 21.9385C7.91285 22.5776 8.71317 22.8293 9.80299 23.172C9.95124 23.2186 10.1048 23.2669 10.2623 23.3181C11.3345 23.6666 12.7769 24.0744 13.5267 24.0906C14.2068 24.1053 14.9659 23.8249 15.804 23.2494C21.5239 19.3883 24.4766 17.4367 24.662 17.3946C24.7927 17.3649 24.974 17.3276 25.0968 17.4367C25.2195 17.5459 25.2075 17.7526 25.1945 17.808C25.1152 18.146 21.9737 21.0666 20.3479 22.5781C19.8411 23.0493 19.4815 23.3835 19.4081 23.4599C19.2434 23.6309 19.0756 23.7926 18.9144 23.9481C17.9183 24.9083 17.1713 25.6285 18.9557 26.8044C19.8132 27.3695 20.4994 27.8368 21.184 28.303C21.9317 28.8121 22.6774 29.32 23.6422 29.9524C23.8881 30.1136 24.1228 30.2809 24.3515 30.4439C25.2215 31.0642 26.0032 31.6215 26.9689 31.5326C27.5301 31.481 28.1097 30.9533 28.4041 29.3796C29.0998 25.6605 30.4673 17.6023 30.7833 14.2817C30.811 13.9908 30.7762 13.6185 30.7482 13.455C30.7202 13.2916 30.6618 13.0587 30.4493 12.8863C30.1977 12.6821 29.8093 12.6391 29.6356 12.6421C28.8457 12.6561 27.6339 13.0774 21.802 15.5031Z" fill="currentColor"/>
</svg>
