<svg viewBox="0 0 51 42" fill="none" xmlns="http://www.w3.org/2000/svg">
<path d="M50.7733 5.04536C49.1251 5.75465 47.3925 6.24857 45.6181 6.51489C46.4476 6.37268 47.6683 4.87944 48.1542 4.27504C48.8924 3.36335 49.4549 2.32259 49.8133 1.20561C49.8133 1.12265 49.8963 1.00414 49.8133 0.944888C49.7715 0.922068 49.7247 0.91011 49.6771 0.91011C49.6294 0.91011 49.5826 0.922068 49.5408 0.944888C47.614 1.98828 45.5634 2.78463 43.4375 3.3151C43.3634 3.33774 43.2845 3.33977 43.2093 3.32098C43.1342 3.30219 43.0656 3.26328 43.0108 3.20844C42.8453 3.01139 42.6672 2.82533 42.4775 2.65144C41.6104 1.87454 40.6266 1.23869 39.5622 0.767122C38.1253 0.177623 36.5732 -0.0776764 35.0232 0.0205047C33.5192 0.115488 32.0508 0.518887 30.7094 1.20561C29.3885 1.92962 28.2275 2.91321 27.2963 4.09727C26.3168 5.31598 25.6096 6.73031 25.2224 8.24515C24.903 9.68606 24.8668 11.1753 25.1157 12.63C25.1157 12.8789 25.1157 12.9145 24.9024 12.8789C16.4526 11.6346 9.51971 8.63623 3.8549 2.2011C3.60603 1.91668 3.47567 1.91668 3.2742 2.2011C0.809176 5.94604 2.00613 11.8716 5.08741 14.7988C5.5022 15.1899 5.92884 15.5691 6.37918 15.9246C4.96643 15.8243 3.58819 15.4415 2.32611 14.7988C2.08909 14.6447 1.95873 14.7277 1.94688 15.0121C1.91328 15.4064 1.91328 15.8029 1.94688 16.1972C2.19416 18.087 2.9389 19.8772 4.10496 21.3847C5.27101 22.8922 6.81653 24.063 8.58348 24.7774C9.01421 24.9619 9.46304 25.1009 9.92265 25.1922C8.61479 25.4497 7.27342 25.4897 5.95254 25.3107C5.66811 25.2514 5.56145 25.4055 5.66811 25.6781C7.41022 30.4185 11.1907 31.8643 13.9639 32.6702C14.3431 32.7295 14.7223 32.7295 15.149 32.8243C15.149 32.8243 15.149 32.8243 15.0779 32.8954C14.2601 34.3886 10.9537 35.3959 9.43675 35.9174C6.66795 36.9119 3.7159 37.2921 0.785474 37.0314C0.323282 36.9603 0.216623 36.9721 0.0981119 37.0314C-0.0203988 37.0906 0.0981119 37.221 0.228474 37.3395C0.821027 37.7306 1.41358 38.0743 2.02984 38.4061C3.86444 39.4068 5.80398 40.2017 7.81316 40.7763C18.2184 43.6443 29.9272 41.5348 37.7371 33.7723C43.876 27.6809 46.0328 19.2785 46.0328 10.8642C46.0328 10.5443 46.4239 10.3546 46.6491 10.1887C48.2022 8.9786 49.5714 7.54948 50.714 5.94604C50.9119 5.70702 51.0133 5.4027 50.9984 5.09276C50.9984 4.915 50.9984 4.95055 50.7733 5.04536Z" fill="currentColor" />
</svg>
