<svg viewBox="0 0 60 42" fill="none" xmlns="http://www.w3.org/2000/svg">
<path fill-rule="evenodd" clip-rule="evenodd" d="M53.3085 1.25046C55.8887 1.94727 57.9167 3.98045 58.6022 6.55773C59.8495 11.235 59.8495 21 59.8495 21C59.8495 21 59.8495 30.765 58.6022 35.4423C57.9072 38.0291 55.8792 40.0623 53.3085 40.7495C48.6431 42 29.9245 42 29.9245 42C29.9245 42 11.2154 42 6.54055 40.7495C3.96031 40.0527 1.93231 38.0195 1.24678 35.4423C-0.000488281 30.765 -0.000488281 21 -0.000488281 21C-0.000488281 21 -0.000488281 11.235 1.24678 6.55773C1.94183 3.97091 3.96983 1.93773 6.54055 1.25046C11.2154 0 29.9245 0 29.9245 0C29.9245 0 48.6431 0 53.3085 1.25046ZM39.4933 21L23.9452 30.0014V11.9986L39.4933 21Z" fill="currentColor" />
</svg>
