<svg width="31" height="25" viewBox="0 0 34 28" fill="none" xmlns="http://www.w3.org/2000/svg">
<path d="M1.25 26.25H1.271M8.25 26.25C8.25 24.3935 7.5125 22.613 6.19975 21.3003C4.88699 19.9875 3.10652 19.25 1.25 19.25M15.25 26.25C15.25 22.537 13.775 18.976 11.1495 16.3505C8.52399 13.725 4.96303 12.25 1.25 12.25M22.25 26.25H27.5C28.8924 26.25 30.2277 25.6969 31.2123 24.7123C32.1969 23.7277 32.75 22.3924 32.75 21V7C32.75 5.60761 32.1969 4.27226 31.2123 3.28769C30.2277 2.30312 28.8924 1.75 27.5 1.75H6.5C5.42284 1.76022 4.37489 2.10155 3.49833 2.72766C2.62177 3.35378 1.95902 4.23438 1.6 5.25" stroke="currentColor" stroke-width="2" stroke-linecap="round" stroke-linejoin="round"/>
</svg>
