<svg width="22" height="22" viewBox="0 0 22 22" fill="none" xmlns="http://www.w3.org/2000/svg">
<path d="M5.12654 8.91302L16.719 8.91295C18.7769 8.91295 20.4451 7.23109 20.4451 5.15642C20.4451 3.08175 18.7769 1.3999 16.719 1.3999L5.12654 1.39998M5.12654 8.91302C3.06864 8.91302 1.40039 7.23117 1.40039 5.1565C1.40039 3.08183 3.06864 1.39998 5.12654 1.39998M5.12654 8.91302C7.18443 8.91302 8.85268 7.23117 8.85268 5.1565C8.85268 3.08183 7.18443 1.39998 5.12654 1.39998M16.8742 13.0869H5.12654C3.06864 13.0869 1.40039 14.7687 1.40039 16.8434C1.40039 18.9181 3.06864 20.5999 5.12654 20.5999H16.8742M16.8742 13.0869C18.9321 13.0869 20.6004 14.7687 20.6004 16.8434C20.6004 18.9181 18.9321 20.5999 16.8742 20.5999M16.8742 13.0869C14.8164 13.0869 13.1481 14.7687 13.1481 16.8434C13.1481 18.9181 14.8164 20.5999 16.8742 20.5999" stroke="currentColor"/>
</svg>
