<svg width="28" height="28" viewBox="0 0 31 30" fill="none" xmlns="http://www.w3.org/2000/svg">
<path d="M11.6748 4.67379L13.469 2.09533C13.656 1.82667 13.9625 1.6665 14.2898 1.6665H17.0442C17.3702 1.6665 17.6758 1.82549 17.863 2.0925L19.6396 4.62693M11.6748 4.67379C11.2123 5.33358 10.4436 5.65689 9.62765 5.59925M11.6748 4.67379C11.2101 5.332 10.4436 5.65957 9.62765 5.59925M9.62765 5.59925L6.45853 5.40029C6.13768 5.38014 5.82672 5.51548 5.6228 5.76401L3.87822 7.89023C3.66202 8.15373 3.59491 8.5092 3.70017 8.83338L4.63094 11.6999M4.63094 11.6999C4.74951 12.0843 4.76468 12.4962 4.67983 12.8852M4.63094 11.6999C4.7512 12.0837 4.76581 12.4947 4.67927 12.8892M4.67983 12.8852C4.59386 13.2696 4.40954 13.6325 4.13588 13.9264M4.67983 12.8852L4.67927 12.8892M4.13588 13.9264L2.03249 16.1886C1.80409 16.4343 1.71406 16.7781 1.79275 17.1041L2.41334 19.6759C2.49176 20.0008 2.72741 20.2651 3.04131 20.3802L5.93126 21.4394C6.31112 21.5864 6.63929 21.8253 6.88767 22.1263M4.13588 13.9264C4.41123 13.6349 4.59386 13.2731 4.67927 12.8892M6.88767 22.1263C7.13436 22.4282 7.30237 22.7925 7.36756 23.187M6.88767 22.1263C7.1366 22.4282 7.30518 22.7915 7.36756 23.187M6.88767 22.1263L6.88373 22.122C6.86744 22.1023 6.85002 22.0817 6.83316 22.0625M7.36756 23.187L7.8595 26.2088C7.91277 26.536 8.12472 26.8155 8.42539 26.9551L10.9107 28.109C11.2018 28.2441 11.54 28.2314 11.8201 28.0747L14.5204 26.5639M14.5204 26.5639C14.8739 26.3654 15.2683 26.2658 15.6628 26.2654M14.5204 26.5639C14.6603 26.4843 14.807 26.4208 14.9576 26.3731C15.1863 26.3006 15.4246 26.2649 15.6628 26.2654M15.6628 26.2654C15.8679 26.2658 16.073 26.2929 16.2731 26.3465C16.4591 26.3963 16.64 26.4689 16.8114 26.5639M15.6628 26.2654C16.059 26.2648 16.4557 26.3644 16.8114 26.5639M16.8114 26.5639L19.6319 28.0908C19.9132 28.2431 20.2504 28.2516 20.539 28.1138L23.012 26.9326C23.3116 26.7895 23.5206 26.5071 23.5699 26.1787L24.0115 23.2371M24.0115 23.2371C24.0738 22.8405 24.2396 22.4734 24.4857 22.1689M24.0115 23.2371C24.0716 22.8396 24.2385 22.473 24.4857 22.1689M24.4857 22.1689C24.7302 21.8675 25.0544 21.6274 25.432 21.479M24.4857 22.1689C24.7296 21.8664 25.0527 21.6256 25.432 21.479M25.432 21.479L28.3468 20.3366C28.6547 20.2159 28.8831 19.9507 28.9568 19.6283L29.5494 17.0338C29.6228 16.7122 29.5329 16.375 29.3091 16.1327L27.1965 13.8451M27.1965 13.8451C26.9178 13.5502 26.7233 13.1979 26.6289 12.8235M27.1965 13.8451C27.0656 13.7074 26.9532 13.5568 26.8616 13.3971C26.7571 13.2158 26.679 13.0229 26.6289 12.8235M26.6289 12.8235C26.5362 12.4517 26.5418 12.0578 26.6593 11.6765L27.5751 8.74111C27.6755 8.41931 27.607 8.06859 27.3929 7.8082L25.6857 5.73174C25.4794 5.48085 25.1641 5.34577 24.8402 5.3695L21.7036 5.59925M21.7036 5.59925C21.2979 5.62789 20.8989 5.55061 20.5438 5.38435M21.7036 5.59925C21.2973 5.62954 20.8989 5.55164 20.5438 5.38435M20.5438 5.38435C20.1864 5.21597 19.8728 4.95704 19.6396 4.62693M20.5438 5.38435C20.1858 5.21659 19.8717 4.95834 19.6396 4.62693M4.67927 12.8892L4.6804 12.8833M20.1813 15.014C20.1813 17.5006 18.1201 19.5163 15.578 19.5163C13.0358 19.5163 10.9746 17.5006 10.9746 15.014C10.9746 12.5274 13.0358 10.5117 15.578 10.5117C18.1201 10.5117 20.1813 12.5274 20.1813 15.014Z" stroke="currentColor" stroke-width="2"/>
</svg>
